<svg height="512pt" viewBox="0 -53 512 512" width="512pt" xmlns="http://www.w3.org/2000/svg"><path d="m131.226562 345.804688v-141.507813c0-8.417969-6.824218-15.238281-15.238281-15.238281h-68.246093c-8.414063 0-15.234376 6.820312-15.234376 15.238281v141.507813zm0 0"/><path d="m247.3125 345.804688v-271.324219c0-8.414063-6.820312-15.238281-15.234375-15.238281h-68.246094c-8.414062 0-15.238281 6.824218-15.238281 15.238281v271.324219zm0 0"/><path d="m363.40625 345.804688v-201.421876c0-8.417968-6.824219-15.238281-15.238281-15.238281h-68.246094c-8.414063 0-15.234375 6.820313-15.234375 15.238281v201.421876zm0 0"/><path d="m479.492188 345.804688v-330.566407c0-8.414062-6.820313-15.238281-15.234376-15.238281h-68.246093c-8.414063 0-15.238281 6.824219-15.238281 15.238281v330.566407zm0 0"/><path d="m496.761719 376.28125h-481.523438c-8.414062 0-15.238281 6.820312-15.238281 15.234375 0 8.417969 6.824219 15.238281 15.238281 15.238281h481.523438c8.414062 0 15.238281-6.820312 15.238281-15.238281 0-8.414063-6.824219-15.234375-15.238281-15.234375zm0 0"/></svg>